<svg width="36" height="198" viewBox="0 0 36 198" fill="none" xmlns="http://www.w3.org/2000/svg">
<g clip-path="url(#clip0_227_786)">
<line x1="-0.590771" y1="10.0919" x2="36.9551" y2="-12.1575" stroke="#2F2F2F" stroke-width="2.31765"/>
<line x1="-0.590771" y1="24.4621" x2="36.9551" y2="2.21265" stroke="#2F2F2F" stroke-width="2.31765"/>
<line x1="-0.590771" y1="38.8312" x2="36.9551" y2="16.5818" stroke="#2F2F2F" stroke-width="2.31765"/>
<line x1="-0.590771" y1="53.2003" x2="36.9551" y2="30.9509" stroke="#2F2F2F" stroke-width="2.31765"/>
<line x1="-0.590771" y1="67.5705" x2="36.9551" y2="45.321" stroke="#2F2F2F" stroke-width="2.31765"/>
<line x1="-0.590771" y1="81.9396" x2="36.9551" y2="59.6902" stroke="#2F2F2F" stroke-width="2.31765"/>
<line x1="-0.590771" y1="96.3087" x2="36.9551" y2="74.0593" stroke="#2F2F2F" stroke-width="2.31765"/>
<line x1="-0.590771" y1="110.678" x2="36.9551" y2="88.4285" stroke="#2F2F2F" stroke-width="2.31765"/>
<line x1="-0.590771" y1="125.048" x2="36.9551" y2="102.799" stroke="#2F2F2F" stroke-width="2.31765"/>
<line x1="-0.590771" y1="139.417" x2="36.9551" y2="117.168" stroke="#2F2F2F" stroke-width="2.31765"/>
<line x1="-0.590771" y1="153.786" x2="36.9551" y2="131.537" stroke="#2F2F2F" stroke-width="2.31765"/>
<line x1="-0.590771" y1="168.155" x2="36.9551" y2="145.906" stroke="#2F2F2F" stroke-width="2.31765"/>
<line x1="-0.590771" y1="182.526" x2="36.9551" y2="160.276" stroke="#2F2F2F" stroke-width="2.31765"/>
<line x1="-0.590771" y1="196.895" x2="36.9551" y2="174.645" stroke="#2F2F2F" stroke-width="2.31765"/>
<line x1="-0.590771" y1="211.264" x2="36.9551" y2="189.014" stroke="#2F2F2F" stroke-width="2.31765"/>
</g>
<defs>
<clipPath id="clip0_227_786">
<rect width="35.6918" height="197" fill="white" transform="translate(0 0.891602)"/>
</clipPath>
</defs>
</svg>
